<svg viewBox="0 0 256 256" xmlns="http://www.w3.org/2000/svg">
  <path d="M912.020 159.977c-0.001-26.509-21.491-47.999-48-48h-704c-26.51 0-48 21.49-48 48s21.49 48 48 48v0h704c26.509-0.001 47.999-21.491 48-48v0zM544 352v352c0.051 44.162 35.838 79.949 79.995 80h144.005c44.162-0.051 79.949-35.838 80-79.995v-352.005c-0.051-44.162-35.838-79.949-79.995-80h-144.005c-44.162 0.051-79.949 35.838-80 79.995v0.005zM640 368h112v320h-112zM176 352v512c0.051 44.162 35.838 79.949 79.995 80h144.005c44.162-0.051 79.949-35.838 80-79.995v-512.005c-0.051-44.162-35.838-79.949-79.995-80h-144.005c-44.162 0.051-79.949 35.838-80 79.995v0.005zM272 368h112v480h-112z" transform="translate(0 256) scale(0.25 -0.25)" fill="black"/>
</svg>
