<svg viewBox="0 0 256 256" xmlns="http://www.w3.org/2000/svg">
  <path d="M880.031 896h-576c-44.162-0.051-79.949-35.838-80-79.995v-80.005h-80c-44.162-0.051-79.949-35.838-80-79.995v-127.386c-0.002-0.209-0.031-0.41-0.031-0.619s0.029-0.41 0.031-0.619v-319.381c0.051-44.162 35.838-79.949 79.995-80h576.005c44.162 0.051 79.949 35.838 80 79.995v80.005h80c44.162 0.051 79.949 35.838 80 79.995v448.005c-0.051 44.162-35.838 79.949-79.995 80h-0.005zM704.031 640v-64h-544v64zM704.031 224h-544v256h544zM864.031 384h-64v272c-0.051 44.162-35.838 79.949-79.995 80h-400.005v64h544z" transform="translate(0 256) scale(0.25 -0.25)" fill="black"/>
</svg>
