<svg viewBox="0 0 256 256" xmlns="http://www.w3.org/2000/svg">
  <path d="M414.195 86.996c-0.031 0-0.067 0-0.104 0-34.775 0-64.356 22.238-75.299 53.269l-0.172 0.559-234.418 677.215c-2.79 7.799-4.402 16.797-4.402 26.172 0 44.183 35.817 80 80 80 9.374 0 18.372-1.612 26.731-4.575l-0.56 0.173 677.211-234.422c31.6-11.172 53.832-40.788 53.832-75.598 0-35.786-23.498-66.084-55.906-76.307l-0.567-0.154-298.129-91.734-91.73-298.125c-10.19-32.564-39.831-55.886-75.004-56.46l-0.067-0.001q-0.709-0.012-1.418-0.012zM429.34 172.23v0zM205.695 818.312l207.629-599.816 79.824 259.43c7.969 25.383 27.567 44.975 52.387 52.784l0.566 0.154 259.414 79.82zM194.922 849.445v-0.004l0.016-0.047z" transform="translate(0 256) scale(0.25 -0.25)" fill="black"/>
</svg>
