<svg viewBox="0 0 256 256" xmlns="http://www.w3.org/2000/svg">
  <path d="M512.004 944.001c-238.587 0-432-193.413-432-432s193.413-432 432-432c238.587 0 432 193.413 432 432v0c-0.277 238.475-193.524 431.722-431.973 432h-0.027zM512.004 176.001c-185.568 0-336 150.432-336 336s150.432 336 336 336c185.568 0 336-150.432 336-336v0c-0.218-185.48-150.52-335.782-335.979-336h-0.021zM636.457 732.451c31.82-31.863 51.499-75.859 51.499-124.451 0-80.471-53.969-148.337-127.686-169.378l-1.242-0.303c-4.658-22.025-23.935-38.316-47.018-38.316-26.511 0-48.002 21.49-48.006 48v0 32c0.001 26.509 21.491 47.999 48 48v0c44.18 0.002 79.994 35.817 79.994 79.997 0 44.181-35.816 79.997-79.997 79.997s-79.995-35.814-79.997-79.994v0c0-26.51-21.49-48-48-48s-48 21.49-48 48v0c0 97.202 78.798 176 176.001 176 48.602 0 92.603-19.7 124.453-51.551v0zM576.008 288.001v-0.020c-0.006-35.347-28.662-64-64.010-64-35.352 0-64.010 28.658-64.010 64.010s28.658 64.010 64.010 64.010c35.348 0 64.004-28.653 64.010-64v0z" transform="translate(0 256) scale(0.25 -0.25)" fill="black"/>
</svg>
