<svg viewBox="0 0 256 256" xmlns="http://www.w3.org/2000/svg">
  <path d="M976 480v-256c-0.051-44.162-35.838-79.949-79.995-80h-768.005c-44.162 0.051-79.949 35.838-80 79.995v256.005c0.051 44.162 35.838 79.949 79.995 80h208.005c26.51 0 48-21.49 48-48s-21.49-48-48-48v0h-192v-224h736v224h-192c-26.51 0-48 21.49-48 48s21.49 48 48 48v0h208c44.162-0.051 79.949-35.838 80-79.995v-0.005zM353.941 702.059l110.059 110.059v-300.117c0-26.51 21.49-48 48-48s48 21.49 48 48v0 300.117l110.059-110.059c8.684-8.672 20.675-14.035 33.918-14.035 26.51 0 48 21.491 48 48 0 13.243-5.363 25.234-14.036 33.918l-191.999 191.999c-0.074 0.074-0.154 0.133-0.229 0.205q-1.576 1.559-3.287 2.973c-0.559 0.459-1.148 0.857-1.723 1.287-0.68 0.508-1.344 1.035-2.051 1.508-0.676 0.453-1.377 0.844-2.068 1.258-0.654 0.391-1.295 0.801-1.967 1.16-0.693 0.371-1.404 0.684-2.111 1.018-0.713 0.338-1.418 0.695-2.15 0.998-0.678 0.281-1.369 0.506-2.057 0.754-0.791 0.285-1.572 0.586-2.381 0.832-0.676 0.203-1.361 0.352-2.045 0.525-0.834 0.213-1.66 0.445-2.512 0.613-0.762 0.15-1.533 0.238-2.301 0.352-0.781 0.115-1.553 0.26-2.346 0.338-1.33 0.131-2.666 0.182-4 0.203-0.24 0.002-0.473 0.035-0.715 0.035s-0.475-0.033-0.715-0.035c-1.334-0.021-2.67-0.072-4-0.203-0.793-0.078-1.564-0.223-2.346-0.338-0.768-0.113-1.539-0.201-2.301-0.352-0.852-0.168-1.678-0.4-2.512-0.613-0.684-0.174-1.369-0.322-2.045-0.525-0.811-0.246-1.592-0.547-2.385-0.834-0.686-0.248-1.375-0.471-2.051-0.752-0.734-0.305-1.439-0.66-2.156-1-0.705-0.332-1.416-0.645-2.107-1.016-0.672-0.359-1.312-0.77-1.967-1.16-0.691-0.414-1.393-0.805-2.068-1.258-0.707-0.473-1.371-1-2.051-1.508-0.574-0.43-1.164-0.828-1.723-1.287q-1.714-1.409-3.287-2.973c-0.074-0.072-0.154-0.131-0.229-0.205l-192-192c-8.672-8.684-14.035-20.675-14.035-33.918 0-26.51 21.491-48 48-48 13.243 0 25.234 5.363 33.918 14.036l-0.001-0.001zM816 352c0 35.346-28.654 64-64 64s-64-28.654-64-64c0-35.346 28.654-64 64-64v0c35.329 0.042 63.958 28.671 64 63.996v0.004z" transform="translate(0 256) scale(0.25 -0.25)" fill="black"/>
</svg>
